<svg id="Layer_1" data-name="Layer 1" xmlns="http://www.w3.org/2000/svg" viewBox="0 0 405.55 89.03"><title>Artboard 6</title><path d="M56.44,0V3H44.59V67.25c0,5.63,0,21.78-23.11,21.78C7.26,89,0,82.51,0,74.51,0,69.62,3,65,8.89,65c4,0,8.29,2.52,8.29,8.29,0,4.44-2.07,6.07-6.07,9.18,1.18,2.67,4.3,3.55,7.26,3.55,9,0,9-8,9-11.7V3H14.07V0Z"/><path d="M78.68,50.28a16.88,16.88,0,0,1,5.66,4.37A18.94,18.94,0,0,1,87.82,61a26.33,26.33,0,0,1,0,15.62,18.93,18.93,0,0,1-3.48,6.4,16.45,16.45,0,0,1-5.66,4.33,19.6,19.6,0,0,1-15.47,0,16.41,16.41,0,0,1-5.66-4.33,18.86,18.86,0,0,1-3.48-6.4,26.33,26.33,0,0,1,0-15.62,18.87,18.87,0,0,1,3.48-6.4,16.84,16.84,0,0,1,5.66-4.37,19.18,19.18,0,0,1,15.47,0ZM65.1,54a12.85,12.85,0,0,0-4.18,3.7A16.79,16.79,0,0,0,58.4,62.9a21.29,21.29,0,0,0,0,11.92A16.77,16.77,0,0,0,60.92,80a12.82,12.82,0,0,0,4.18,3.7,12.86,12.86,0,0,0,11.69,0A12.82,12.82,0,0,0,81,80a16.77,16.77,0,0,0,2.52-5.22,21.27,21.27,0,0,0,0-11.92A16.79,16.79,0,0,0,81,57.68,12.85,12.85,0,0,0,76.79,54,12.86,12.86,0,0,0,65.1,54Z"/><path d="M121.5,87.95V81.07h-.15A13.24,13.24,0,0,1,116,87a15.31,15.31,0,0,1-7.81,2A17,17,0,0,1,102,88a10.28,10.28,0,0,1-4.14-2.85,11.54,11.54,0,0,1-2.33-4.51,22.73,22.73,0,0,1-.74-6.07V49.76h4.66V74.63q.15,5.18,2.41,7.85t7.81,2.66a9.84,9.84,0,0,0,5.18-1.3,11,11,0,0,0,3.55-3.44,15.48,15.48,0,0,0,2.07-4.92,24.17,24.17,0,0,0,.67-5.66V49.76h4.66V87.95Z"/><path d="M137.78,49.76v9h.15a14.65,14.65,0,0,1,5.51-7.18,14.44,14.44,0,0,1,8.92-2.29V53.9a14.09,14.09,0,0,0-5.77.85,13,13,0,0,0-4.48,2.85,12.85,12.85,0,0,0-2.92,4.4,14.72,14.72,0,0,0-1,5.59V87.95h-4.66V49.76Z"/><path d="M161.61,49.76v6.59h.15a11.18,11.18,0,0,1,4.74-5.59A13.91,13.91,0,0,1,174,48.65a18.83,18.83,0,0,1,6.7,1A10.61,10.61,0,0,1,185,52.61a10.9,10.9,0,0,1,2.29,4.63,26,26,0,0,1,.67,6.14V87.95H183.3V64.12a22.1,22.1,0,0,0-.44-4.55,9.63,9.63,0,0,0-1.55-3.66,7.54,7.54,0,0,0-3-2.44,11,11,0,0,0-4.7-.89,11.88,11.88,0,0,0-5,1,10.81,10.81,0,0,0-3.7,2.74,12.63,12.63,0,0,0-2.37,4.14,16.85,16.85,0,0,0-.93,5.22V87.95h-4.66V49.76Z"/><path d="M196.62,55.68a10.91,10.91,0,0,1,3.22-4,13.62,13.62,0,0,1,4.77-2.29,23.27,23.27,0,0,1,6.07-.74,26.78,26.78,0,0,1,5,.48,12.19,12.19,0,0,1,4.52,1.81,9.88,9.88,0,0,1,3.26,3.74,13.49,13.49,0,0,1,1.26,6.25V81.21q0,2.81,2.74,2.81a3.6,3.6,0,0,0,1.48-.3v3.92q-.82.15-1.44.22a14,14,0,0,1-1.59.07,7,7,0,0,1-2.85-.48,3.81,3.81,0,0,1-1.67-1.37,5.12,5.12,0,0,1-.78-2.11,18.14,18.14,0,0,1-.18-2.7h-.15a31.31,31.31,0,0,1-2.55,3.29A12.7,12.7,0,0,1,214.86,87a13.36,13.36,0,0,1-3.63,1.48,19.94,19.94,0,0,1-4.85.52,19.14,19.14,0,0,1-5-.63,11.2,11.2,0,0,1-4.07-2,9.57,9.57,0,0,1-2.74-3.48,11.57,11.57,0,0,1-1-5,9.88,9.88,0,0,1,1.78-6.25,11.18,11.18,0,0,1,4.7-3.44,26.86,26.86,0,0,1,6.59-1.67q3.66-.48,7.44-.93,1.48-.15,2.59-.37a4.51,4.51,0,0,0,1.85-.78,3.6,3.6,0,0,0,1.15-1.52,6.56,6.56,0,0,0,.41-2.52,8.5,8.5,0,0,0-.78-3.89,6.15,6.15,0,0,0-2.15-2.41A8.65,8.65,0,0,0,214,52.9a21.51,21.51,0,0,0-3.89-.33,11.77,11.77,0,0,0-7.25,2.11q-2.81,2.11-3,6.77h-4.66A15.5,15.5,0,0,1,196.62,55.68Zm23.31,11.4a2.67,2.67,0,0,1-1.7,1.18,17.16,17.16,0,0,1-2.22.52q-3,.52-6.11.93a33.51,33.51,0,0,0-5.74,1.22,11.22,11.22,0,0,0-4.26,2.33,5.56,5.56,0,0,0-1.67,4.33,6.78,6.78,0,0,0,.7,3.15,7.62,7.62,0,0,0,1.89,2.37,8.2,8.2,0,0,0,2.74,1.52,10,10,0,0,0,3.18.52,16,16,0,0,0,5.11-.81A12.55,12.55,0,0,0,216.12,82a11.27,11.27,0,0,0,4-8.81V67.08Z"/><path d="M237.69,35.1V87.95H233V35.1Z"/><path d="M255.61,35.1V54.35h.15A11.22,11.22,0,0,1,261,50a17.67,17.67,0,0,1,6.85-1.37,14.59,14.59,0,0,1,10.77,4.81,18.57,18.57,0,0,1,3.66,6.25,26.25,26.25,0,0,1,1.41,9.07,26.24,26.24,0,0,1-1.41,9.07,18.55,18.55,0,0,1-3.66,6.25,14.59,14.59,0,0,1-10.77,4.81,20.17,20.17,0,0,1-7.55-1.33,9.58,9.58,0,0,1-5-4.51h-.15v4.88h-10V35.1Zm17,29.09A12.19,12.19,0,0,0,271,60.27a8.54,8.54,0,0,0-2.78-2.7,8.57,8.57,0,0,0-8,0,8.41,8.41,0,0,0-2.81,2.7,12.17,12.17,0,0,0-1.63,3.92,20.44,20.44,0,0,0-.52,4.66,20.1,20.1,0,0,0,.52,4.59,12.16,12.16,0,0,0,1.63,3.92,8.39,8.39,0,0,0,2.81,2.7,8.57,8.57,0,0,0,8,0,8.52,8.52,0,0,0,2.78-2.7,12.18,12.18,0,0,0,1.63-3.92,20.16,20.16,0,0,0,.52-4.59A20.5,20.5,0,0,0,272.63,64.19Z"/><path d="M288.76,61.45a12.2,12.2,0,0,1,1.85-6.14,12.59,12.59,0,0,1,4.14-3.92,18,18,0,0,1,5.66-2.11,32.22,32.22,0,0,1,6.33-.63,43,43,0,0,1,5.85.41,17.91,17.91,0,0,1,5.4,1.59,10.65,10.65,0,0,1,4,3.29,9.2,9.2,0,0,1,1.55,5.59V79.44a40,40,0,0,0,.3,5,9,9,0,0,0,1,3.55H314.22a14.79,14.79,0,0,1-.48-1.81,15.33,15.33,0,0,1-.26-1.89,13.7,13.7,0,0,1-5.92,3.63,23.78,23.78,0,0,1-7,1,18.78,18.78,0,0,1-5.11-.67,11.68,11.68,0,0,1-4.14-2.07,9.64,9.64,0,0,1-2.78-3.55,12,12,0,0,1-1-5.11,11.15,11.15,0,0,1,1.15-5.37,9.59,9.59,0,0,1,3-3.37,13.26,13.26,0,0,1,4.14-1.89,44.49,44.49,0,0,1,4.7-1q2.37-.37,4.66-.59a28.07,28.07,0,0,0,4.07-.67,7.1,7.1,0,0,0,2.81-1.29,2.84,2.84,0,0,0,1-2.48,5.58,5.58,0,0,0-.55-2.7A4.09,4.09,0,0,0,311,56.6a5.84,5.84,0,0,0-2.15-.74,17.68,17.68,0,0,0-2.63-.19A8,8,0,0,0,301.34,57a5.94,5.94,0,0,0-2.07,4.44ZM313,69.22a4.71,4.71,0,0,1-1.67.93,17,17,0,0,1-2.15.56q-1.15.22-2.41.37t-2.52.37A19.05,19.05,0,0,0,302,72a6.9,6.9,0,0,0-2,1,4.75,4.75,0,0,0-1.37,1.59,5.12,5.12,0,0,0-.52,2.44,4.94,4.94,0,0,0,.52,2.37A4,4,0,0,0,300,81a5.93,5.93,0,0,0,2.07.78,13.22,13.22,0,0,0,2.44.22,9.29,9.29,0,0,0,4.81-1,6.93,6.93,0,0,0,2.52-2.48,7.94,7.94,0,0,0,1-2.92,20.35,20.35,0,0,0,.18-2.37Z"/><path d="M339.42,78.44a6.14,6.14,0,0,0,1.81,2,7.77,7.77,0,0,0,2.55,1.15,12,12,0,0,0,3,.37,11.2,11.2,0,0,0,2.33-.26,7.92,7.92,0,0,0,2.22-.81A5,5,0,0,0,353,79.4a3.89,3.89,0,0,0,.67-2.33q0-2.37-3.15-3.55a63.08,63.08,0,0,0-8.77-2.37q-2.3-.52-4.48-1.22a15.23,15.23,0,0,1-3.89-1.85,9,9,0,0,1-2.74-2.89,8.17,8.17,0,0,1-1-4.26,11.52,11.52,0,0,1,1.44-6.07,10.65,10.65,0,0,1,3.81-3.74,16.72,16.72,0,0,1,5.33-1.92,32.86,32.86,0,0,1,6.07-.56,30.34,30.34,0,0,1,6,.59,16,16,0,0,1,5.22,2A12,12,0,0,1,361.33,55a12.56,12.56,0,0,1,1.81,5.88h-10q-.22-3-2.29-4.11A10.5,10.5,0,0,0,346,55.68a18.1,18.1,0,0,0-1.92.11,6.4,6.4,0,0,0-1.89.48,3.89,3.89,0,0,0-1.44,1.07,2.83,2.83,0,0,0-.59,1.89,2.88,2.88,0,0,0,1,2.29,8,8,0,0,0,2.7,1.44,33.69,33.69,0,0,0,3.81,1q2.15.44,4.37,1a44.8,44.8,0,0,1,4.48,1.26,14.76,14.76,0,0,1,3.89,2,9.5,9.5,0,0,1,2.74,3,8.91,8.91,0,0,1,1,4.48,11.62,11.62,0,0,1-5.48,10.44,16.23,16.23,0,0,1-5.59,2.18,32.61,32.61,0,0,1-6.4.63,31.69,31.69,0,0,1-6.51-.67A17.18,17.18,0,0,1,334.54,86a12.69,12.69,0,0,1-4.07-4.11,12.86,12.86,0,0,1-1.74-6.4h10A5.75,5.75,0,0,0,339.42,78.44Z"/><path d="M380.46,78.77q2.37,2.3,6.81,2.29a9.37,9.37,0,0,0,5.48-1.59,6.61,6.61,0,0,0,2.81-3.37h9.25Q402.59,83,398,86a20,20,0,0,1-11.1,3,21.83,21.83,0,0,1-8.14-1.44,16.91,16.91,0,0,1-6.14-4.11A18.47,18.47,0,0,1,368.73,77a23.27,23.27,0,0,1-1.37-8.14,22.32,22.32,0,0,1,1.41-8A18.5,18.5,0,0,1,378.95,50.2a19.82,19.82,0,0,1,8-1.55,18.2,18.2,0,0,1,8.51,1.89,17,17,0,0,1,6,5.07,20.85,20.85,0,0,1,3.37,7.25,27.06,27.06,0,0,1,.74,8.51H377.87Q378.1,76.48,380.46,78.77Zm11.88-20.13q-1.89-2.07-5.74-2.07a9.16,9.16,0,0,0-4.18.85,8,8,0,0,0-2.66,2.11,7.73,7.73,0,0,0-1.41,2.66,12,12,0,0,0-.48,2.52H395A12.16,12.16,0,0,0,392.34,58.64Z"/></svg>