<svg xmlns="http://www.w3.org/2000/svg" xmlns:xlink="http://www.w3.org/1999/xlink" version="1.1" x="0px" y="0px" viewBox="0 0 300 375" enable-background="new 0 0 300 300" xml:space="preserve"><g><g><path d="M150.4,19.2C78.2,19.2,19.7,77.8,19.7,150s58.6,130.8,130.8,130.8S281.2,222.2,281.2,150S222.7,19.2,150.4,19.2z     M150.4,249.8c-55,0-99.8-44.8-99.8-99.8s44.8-99.8,99.8-99.8S250.2,95,250.2,150S205.5,249.8,150.4,249.8z"/></g><g><path d="M178.3,165.9l23.1,7.3c-3.5,12.9-9.4,22.4-17.7,28.7c-8.2,6.3-18.7,9.4-31.3,9.4c-15.7,0-28.5-5.4-38.6-16.1    s-15.1-25.3-15.1-43.9c0-19.6,5.1-34.9,15.2-45.8c10.1-10.9,23.5-16.3,40-16.3c14.4,0,26.2,4.3,35.2,12.8    c5.4,5,9.4,12.3,12.1,21.7l-23.6,5.6c-1.4-6.1-4.3-10.9-8.7-14.5c-4.4-3.5-9.8-5.3-16.1-5.3c-8.7,0-15.8,3.1-21.3,9.4    c-5.4,6.3-8.2,16.4-8.2,30.5c0,14.9,2.7,25.5,8,31.9c5.4,6.3,12.3,9.5,20.9,9.5c6.3,0,11.8-2,16.3-6    C173.1,180.9,176.4,174.5,178.3,165.9z"/></g></g><g display="none"><g display="inline"><line fill="#000000" x1="38.3" y1="0" x2="38.3" y2="300"/><line fill="#000000" x1="19.2" y1="0" x2="19.2" y2="300"/><line fill="#000000" x1="150" y1="0" x2="150" y2="300"/><line fill="#000000" x1="280.8" y1="0" x2="280.8" y2="300"/><line fill="#000000" x1="300" y1="0" x2="300" y2="300"/><line fill="#000000" x1="261.7" y1="0" x2="261.7" y2="300"/><line fill="#000000" x1="300" y1="38.3" x2="0" y2="38.3"/><line fill="#000000" x1="300" y1="19.1" x2="0" y2="19.1"/><line fill="#000000" x1="300" y1="280.8" x2="0" y2="280.8"/><line fill="#000000" x1="300" y1="150" x2="0" y2="150"/><line fill="#000000" x1="300" y1="300" x2="0" y2="300"/><line fill="#000000" x1="300" y1="261.6" x2="0" y2="261.6"/><circle fill="#000000" stroke="#083290" stroke-width="0.25" stroke-miterlimit="10" cx="62.7" cy="62.6" r="24.3"/><circle fill="#000000" stroke="#083290" stroke-width="0.25" stroke-miterlimit="10" cx="237.3" cy="62.6" r="24.3"/><circle fill="#000000" stroke="#083290" stroke-width="0.25" stroke-miterlimit="10" cx="62.7" cy="235.3" r="24.3"/><circle fill="#000000" stroke="#083290" stroke-width="0.25" stroke-miterlimit="10" cx="237.3" cy="235.3" r="24.3"/><circle fill="#000000" stroke="#083290" stroke-width="0.25" stroke-miterlimit="10" cx="150.4" cy="150.3" r="130.8"/><circle fill="#000000" stroke="#083290" stroke-width="0.25" stroke-miterlimit="10" cx="150.4" cy="150.3" r="98.8"/><circle fill="#000000" stroke="#083290" stroke-width="0.25" stroke-miterlimit="10" cx="150.4" cy="150.3" r="65.2"/></g></g><text x="0" y="315" fill="#000000" font-size="5px" font-weight="bold" font-family="'Helvetica Neue', Helvetica, Arial-Unicode, Arial, Sans-serif">Created by Shiori Kawada</text><text x="0" y="320" fill="#000000" font-size="5px" font-weight="bold" font-family="'Helvetica Neue', Helvetica, Arial-Unicode, Arial, Sans-serif">from the Noun Project</text></svg>