<?xml version="1.0" encoding="utf-8"?>
<!-- Generator: Adobe Illustrator 19.1.0, SVG Export Plug-In . SVG Version: 6.00 Build 0)  -->
<svg version="1.1" id="Layer_1" xmlns="http://www.w3.org/2000/svg" xmlns:xlink="http://www.w3.org/1999/xlink" x="0px" y="0px"
	 viewBox="0 0 1584 576" style="enable-background:new 0 0 1584 576;" xml:space="preserve">
<style type="text/css">
	.st0{fill:none;stroke:#231F20;stroke-width:3;stroke-miterlimit:10;}
	.st1{fill:none;}
	.st2{font-family:'Verlag-Book';}
	.st3{font-size:14px;}
	.st4{letter-spacing:11;}
	.st5{letter-spacing:1;}
	.st6{letter-spacing:20;}
	.st7{letter-spacing:4;}
	.st8{letter-spacing:3;}
	.st9{letter-spacing:2;}
	.st10{letter-spacing:6;}
	.st11{letter-spacing:7;}
	.st12{letter-spacing:5;}
</style>
<line class="st0" x1="32.9" y1="258.5" x2="794.9" y2="258.5"/>
<line class="st0" x1="125.9" y1="213.5" x2="125.9" y2="258.5"/>
<line class="st0" x1="354.9" y1="213.5" x2="354.9" y2="258.5"/>
<line class="st0" x1="479.9" y1="258.5" x2="479.9" y2="303.5"/>
<line class="st0" x1="611.9" y1="213.5" x2="611.9" y2="258.5"/>
<line class="st0" x1="214.9" y1="258.5" x2="214.9" y2="303.5"/>
<line class="st0" x1="730.9" y1="258.5" x2="730.9" y2="303.5"/>
<rect x="40.9" y="149.5" class="st1" width="170" height="57"/>
<text transform="matrix(1 0 0 1 40.8986 159.7617)"><tspan x="0" y="0" class="st2 st3">1463:</tspan><tspan x="27.3" y="0" class="st2 st3 st4"> </tspan><tspan x="41.8" y="0" class="st2 st3">the</tspan><tspan x="59.2" y="0" class="st2 st3 st4"> </tspan><tspan x="73.7" y="0" class="st2 st3">first</tspan><tspan x="93.8" y="0" class="st2 st3 st4"> </tspan><tspan x="108.3" y="0" class="st2 st3">title</tspan><tspan x="128.7" y="0" class="st2 st3 st4"> </tspan><tspan x="143.2" y="0" class="st2 st3">page </tspan><tspan x="0" y="16.8" class="st2 st3">appeared</tspan><tspan x="50.7" y="16.8" class="st2 st3"> </tspan><tspan x="53.8" y="16.8" class="st2 st3">in</tspan><tspan x="63.3" y="16.8" class="st2 st3"> </tspan><tspan x="66.4" y="16.8" class="st2 st3">a</tspan><tspan x="72.5" y="16.8" class="st2 st3"> </tspan><tspan x="75.6" y="16.8" class="st2 st3">papal</tspan><tspan x="104.8" y="16.8" class="st2 st3"> </tspan><tspan x="107.9" y="16.8" class="st2 st3">bull</tspan><tspan x="127.3" y="16.8" class="st2 st3"> </tspan><tspan x="130.4" y="16.8" class="st2 st3">by</tspan><tspan x="143.7" y="16.8" class="st2 st3"> </tspan><tspan x="146.7" y="16.8" class="st2 st3">Fust </tspan><tspan x="47.4" y="33.6" class="st2 st3">and Schoeffer</tspan></text>
<rect x="154.9" y="311.5" class="st1" width="135" height="103"/>
<text transform="matrix(1 0 0 1 154.8986 321.7617)"><tspan x="0" y="0" class="st2 st3">1470:</tspan><tspan x="28" y="0" class="st2 st3 st5"> </tspan><tspan x="32.5" y="0" class="st2 st3">the</tspan><tspan x="49.9" y="0" class="st2 st3 st5"> </tspan><tspan x="54.5" y="0" class="st2 st3">first</tspan><tspan x="74.6" y="0" class="st2 st3 st5"> </tspan><tspan x="79.2" y="0" class="st2 st3">dated</tspan><tspan x="110.1" y="0" class="st2 st3 st5"> </tspan><tspan x="114.7" y="0" class="st2 st3">title </tspan><tspan x="0" y="16.8" class="st2 st3">page</tspan><tspan x="26.8" y="16.8" class="st2 st3"> </tspan><tspan x="30.4" y="16.8" class="st2 st3">featured</tspan><tspan x="75.7" y="16.8" class="st2 st3"> </tspan><tspan x="79.3" y="16.8" class="st2 st3">Rolewink’s </tspan><tspan x="0" y="33.6" class="st2 st3">‘Sermo’</tspan><tspan x="40" y="33.6" class="st2 st3 st6"> </tspan><tspan x="63.5" y="33.6" class="st2 st3">printed</tspan><tspan x="102" y="33.6" class="st2 st3 st6"> </tspan><tspan x="125.5" y="33.6" class="st2 st3">in </tspan><tspan x="43.9" y="50.4" class="st2 st3">Cologne</tspan></text>
<rect x="255.4" y="121.5" class="st1" width="199" height="113"/>
<text transform="matrix(1 0 0 1 255.3986 131.7617)"><tspan x="0" y="0" class="st2 st3">1476:</tspan><tspan x="27.3" y="0" class="st2 st3 st7"> </tspan><tspan x="34.8" y="0" class="st2 st3">first</tspan><tspan x="55" y="0" class="st2 st3 st7"> </tspan><tspan x="62.5" y="0" class="st2 st3">complete</tspan><tspan x="113" y="0" class="st2 st3 st7"> </tspan><tspan x="120.6" y="0" class="st2 st3">title</tspan><tspan x="140.9" y="0" class="st2 st3 st7"> </tspan><tspan x="148.4" y="0" class="st2 st3">page--i</tspan><tspan x="194.3" y="0" class="st2 st3">-</tspan><tspan x="0" y="16.8" class="st2 st3">cluded: author, title of book, name of </tspan><tspan x="0" y="33.6" class="st2 st3">printer/publisher,</tspan><tspan x="92.2" y="33.6" class="st2 st3"> </tspan><tspan x="95.2" y="33.6" class="st2 st3">and</tspan><tspan x="115.1" y="33.6" class="st2 st3"> </tspan><tspan x="118.1" y="33.6" class="st2 st3">place</tspan><tspan x="146.6" y="33.6" class="st2 st3"> </tspan><tspan x="149.5" y="33.6" class="st2 st3">&amp;</tspan><tspan x="158" y="33.6" class="st2 st3"> </tspan><tspan x="161" y="33.6" class="st2 st3">date</tspan><tspan x="184.8" y="33.6" class="st2 st3"> </tspan><tspan x="187.8" y="33.6" class="st2 st3">of </tspan><tspan x="0" y="50.4" class="st2 st3">printing</tspan><tspan x="41.6" y="50.4" class="st2 st3"> </tspan><tspan x="45" y="50.4" class="st2 st3">appeared</tspan><tspan x="95.7" y="50.4" class="st2 st3"> </tspan><tspan x="99.1" y="50.4" class="st2 st3">in</tspan><tspan x="108.6" y="50.4" class="st2 st3"> </tspan><tspan x="112" y="50.4" class="st2 st3">Regiomontanus’ </tspan><tspan x="45.5" y="67.2" class="st2 st3">‘Calendar’ in Venice</tspan></text>
<rect x="406.9" y="311.5" class="st1" width="160" height="63"/>
<text transform="matrix(1 0 0 1 406.8986 321.7617)"><tspan x="0" y="0" class="st2 st3">c.</tspan><tspan x="9.1" y="0" class="st2 st3"> </tspan><tspan x="12.4" y="0" class="st2 st3">1525:</tspan><tspan x="39.2" y="0" class="st2 st3"> </tspan><tspan x="42.5" y="0" class="st2 st3">printers</tspan><tspan x="82.9" y="0" class="st2 st3"> </tspan><tspan x="86.3" y="0" class="st2 st3">adopt</tspan><tspan x="117.9" y="0" class="st2 st3"> </tspan><tspan x="121.2" y="0" class="st2 st3">the</tspan><tspan x="138.6" y="0" class="st2 st3"> </tspan><tspan x="141.9" y="0" class="st2 st3">use </tspan><tspan x="0" y="16.8" class="st2 st3">of</tspan><tspan x="11.2" y="16.8" class="st2 st3 st5"> </tspan><tspan x="15.4" y="16.8" class="st2 st3">the</tspan><tspan x="32.8" y="16.8" class="st2 st3 st5"> </tspan><tspan x="36.9" y="16.8" class="st2 st3">title</tspan><tspan x="57.3" y="16.8" class="st2 st3 st5"> </tspan><tspan x="61.4" y="16.8" class="st2 st3">page</tspan><tspan x="88.3" y="16.8" class="st2 st3 st5"> </tspan><tspan x="92.5" y="16.8" class="st2 st3">as</tspan><tspan x="103.5" y="16.8" class="st2 st3 st5"> </tspan><tspan x="107.6" y="16.8" class="st2 st3">a</tspan><tspan x="113.7" y="16.8" class="st2 st3 st5"> </tspan><tspan x="117.9" y="16.8" class="st2 st3">uniform </tspan><tspan x="58.6" y="33.6" class="st2 st3">practice</tspan></text>
<rect x="521.9" y="164.5" class="st1" width="180" height="42"/>
<text transform="matrix(1 0 0 1 521.8986 174.7617)"><tspan x="0" y="0" class="st2 st3">c.</tspan><tspan x="9.1" y="0" class="st2 st3 st5"> </tspan><tspan x="13.6" y="0" class="st2 st3">16th</tspan><tspan x="36.1" y="0" class="st2 st3 st5"> </tspan><tspan x="40.6" y="0" class="st2 st3">century:</tspan><tspan x="83.9" y="0" class="st2 st3 st5"> </tspan><tspan x="88.5" y="0" class="st2 st3">titles</tspan><tspan x="113.7" y="0" class="st2 st3 st5"> </tspan><tspan x="118.3" y="0" class="st2 st3">pages</tspan><tspan x="150" y="0" class="st2 st3 st5"> </tspan><tspan x="154.6" y="0" class="st2 st3">were </tspan><tspan x="15.6" y="16.8" class="st2 st3">displayed as advertisements</tspan></text>
<rect x="633.9" y="305.5" class="st1" width="173" height="123"/>
<text transform="matrix(1 0 0 1 633.8986 315.7617)"><tspan x="0" y="0" class="st2 st3">c.</tspan><tspan x="9.1" y="0" class="st2 st3 st5"> </tspan><tspan x="14.2" y="0" class="st2 st3">16-17th</tspan><tspan x="52.1" y="0" class="st2 st3 st5"> </tspan><tspan x="57.2" y="0" class="st2 st3">century:</tspan><tspan x="100.5" y="0" class="st2 st3 st5"> </tspan><tspan x="105.6" y="0" class="st2 st3">titles</tspan><tspan x="130.8" y="0" class="st2 st3 st5"> </tspan><tspan x="136" y="0" class="st2 st3">Shake</tspan><tspan x="168.3" y="0" class="st2 st3">-</tspan><tspan x="0" y="16.8" class="st2 st3">speare</tspan><tspan x="35.2" y="16.8" class="st2 st3 st8"> </tspan><tspan x="41.4" y="16.8" class="st2 st3">chose</tspan><tspan x="72.6" y="16.8" class="st2 st3 st8"> </tspan><tspan x="78.9" y="16.8" class="st2 st3">seem</tspan><tspan x="107.2" y="16.8" class="st2 st3 st8"> </tspan><tspan x="113.4" y="16.8" class="st2 st3">to</tspan><tspan x="124.6" y="16.8" class="st2 st3 st8"> </tspan><tspan x="130.8" y="16.8" class="st2 st3">indicate </tspan><tspan x="0" y="33.6" class="st2 st3">that</tspan><tspan x="21.2" y="33.6" class="st2 st3 st5"> </tspan><tspan x="25.9" y="33.6" class="st2 st3">he</tspan><tspan x="39.1" y="33.6" class="st2 st3 st5"> </tspan><tspan x="43.8" y="33.6" class="st2 st3">placed</tspan><tspan x="79.4" y="33.6" class="st2 st3 st5"> </tspan><tspan x="84.1" y="33.6" class="st2 st3">little</tspan><tspan x="107.2" y="33.6" class="st2 st3 st5"> </tspan><tspan x="111.9" y="33.6" class="st2 st3">importance </tspan><tspan x="0" y="50.4" class="st2 st3">to</tspan><tspan x="11.2" y="50.4" class="st2 st3"> </tspan><tspan x="14.2" y="50.4" class="st2 st3">the</tspan><tspan x="31.6" y="50.4" class="st2 st3"> </tspan><tspan x="34.5" y="50.4" class="st2 st3">selection.</tspan><tspan x="84.9" y="50.4" class="st2 st3"> </tspan><tspan x="87.9" y="50.4" class="st2 st3">Except</tspan><tspan x="125.5" y="50.4" class="st2 st3"> </tspan><tspan x="128.5" y="50.4" class="st2 st3">when</tspan><tspan x="156.8" y="50.4" class="st2 st3"> </tspan><tspan x="159.8" y="50.4" class="st2 st3">he </tspan><tspan x="0" y="67.2" class="st2 st3">made</tspan><tspan x="30.2" y="67.2" class="st2 st3 st9"> </tspan><tspan x="35.6" y="67.2" class="st2 st3">the</tspan><tspan x="53" y="67.2" class="st2 st3 st9"> </tspan><tspan x="58.4" y="67.2" class="st2 st3">simple</tspan><tspan x="93" y="67.2" class="st2 st3 st9"> </tspan><tspan x="98.5" y="67.2" class="st2 st3">choice</tspan><tspan x="133.6" y="67.2" class="st2 st3 st9"> </tspan><tspan x="139" y="67.2" class="st2 st3">of</tspan><tspan x="150.2" y="67.2" class="st2 st3 st9"> </tspan><tspan x="155.6" y="67.2" class="st2 st3">the </tspan><tspan x="0" y="84" class="st2 st3">leading</tspan><tspan x="39.1" y="84" class="st2 st3 st8"> </tspan><tspan x="46.2" y="84" class="st2 st3">character(s)--but</tspan><tspan x="138" y="84" class="st2 st3 st8"> </tspan><tspan x="145" y="84" class="st2 st3">there </tspan><tspan x="45.2" y="100.8" class="st2 st3">is little to go on</tspan></text>
<line class="st0" x1="789.1" y1="258.5" x2="1551.1" y2="258.5"/>
<line class="st0" x1="1394.1" y1="213.5" x2="1394.1" y2="258.5"/>
<line class="st0" x1="1469.6" y1="258.5" x2="1469.6" y2="303.5"/>
<line class="st0" x1="1265.1" y1="258.5" x2="1265.1" y2="303.5"/>
<line class="st0" x1="1170.1" y1="213.5" x2="1170.1" y2="258.5"/>
<line class="st0" x1="1022.1" y1="258.5" x2="1022.1" y2="303.5"/>
<line class="st0" x1="884.1" y1="213.5" x2="884.1" y2="258.5"/>
<rect x="789.1" y="160.5" class="st1" width="212" height="64"/>
<text transform="matrix(1 0 0 1 789.1014 170.7617)"><tspan x="0" y="0" class="st2 st3">c.</tspan><tspan x="9.1" y="0" class="st2 st3 st8"> </tspan><tspan x="15.4" y="0" class="st2 st3">16-17th</tspan><tspan x="53.3" y="0" class="st2 st3 st8"> </tspan><tspan x="59.6" y="0" class="st2 st3">century:</tspan><tspan x="102.9" y="0" class="st2 st3 st8"> </tspan><tspan x="109.2" y="0" class="st2 st3">titles</tspan><tspan x="134.4" y="0" class="st2 st3 st8"> </tspan><tspan x="140.7" y="0" class="st2 st3">were</tspan><tspan x="166.1" y="0" class="st2 st3 st8"> </tspan><tspan x="172.4" y="0" class="st2 st3">divided </tspan><tspan x="0" y="16.8" class="st2 st3">into</tspan><tspan x="20.7" y="16.8" class="st2 st3 st5"> </tspan><tspan x="25.5" y="16.8" class="st2 st3">two</tspan><tspan x="45" y="16.8" class="st2 st3 st5"> </tspan><tspan x="49.8" y="16.8" class="st2 st3">categories:</tspan><tspan x="108.1" y="16.8" class="st2 st3 st5"> </tspan><tspan x="112.9" y="16.8" class="st2 st3">spicy</tspan><tspan x="139.8" y="16.8" class="st2 st3 st5"> </tspan><tspan x="144.6" y="16.8" class="st2 st3">&amp;</tspan><tspan x="153.1" y="16.8" class="st2 st3 st5"> </tspan><tspan x="157.9" y="16.8" class="st2 st3">provoking </tspan><tspan x="2.5" y="33.6" class="st2 st3">and fair &amp; full of description of content</tspan></text>
<rect x="929.1" y="309.5" class="st1" width="186" height="45.5"/>
<text transform="matrix(1 0 0 1 929.1014 319.7617)"><tspan x="0" y="0" class="st2 st3">c.</tspan><tspan x="9.1" y="0" class="st2 st3"> </tspan><tspan x="12.7" y="0" class="st2 st3">16-18th</tspan><tspan x="51.4" y="0" class="st2 st3"> </tspan><tspan x="55" y="0" class="st2 st3">century:</tspan><tspan x="98.3" y="0" class="st2 st3"> </tspan><tspan x="101.9" y="0" class="st2 st3">double</tspan><tspan x="139.2" y="0" class="st2 st3"> </tspan><tspan x="142.8" y="0" class="st2 st3">or</tspan><tspan x="154" y="0" class="st2 st3"> </tspan><tspan x="157.6" y="0" class="st2 st3">alter</tspan><tspan x="181.3" y="0" class="st2 st3">-</tspan><tspan x="26.7" y="16.8" class="st2 st3">nate titles were in vogue.</tspan></text>
<rect x="1069.6" y="127.5" class="st1" width="201" height="86"/>
<text transform="matrix(1 0 0 1 1069.6014 137.7617)"><tspan x="0" y="0" class="st2 st3">c.</tspan><tspan x="9.1" y="0" class="st2 st3 st5"> </tspan><tspan x="13.5" y="0" class="st2 st3">18th</tspan><tspan x="35.9" y="0" class="st2 st3 st5"> </tspan><tspan x="40.4" y="0" class="st2 st3">century:</tspan><tspan x="83.7" y="0" class="st2 st3 st5"> </tspan><tspan x="88.1" y="0" class="st2 st3">the</tspan><tspan x="105.5" y="0" class="st2 st3 st5"> </tspan><tspan x="109.9" y="0" class="st2 st3">practice</tspan><tspan x="152.7" y="0" class="st2 st3 st5"> </tspan><tspan x="157.1" y="0" class="st2 st3">of</tspan><tspan x="168.3" y="0" class="st2 st3 st5"> </tspan><tspan x="172.7" y="0" class="st2 st3">using </tspan><tspan x="0" y="16.8" class="st2 st3">the</tspan><tspan x="17.4" y="16.8" class="st2 st3 st10"> </tspan><tspan x="27.2" y="16.8" class="st2 st3">name</tspan><tspan x="57" y="16.8" class="st2 st3 st10"> </tspan><tspan x="66.9" y="16.8" class="st2 st3">of</tspan><tspan x="78.1" y="16.8" class="st2 st3 st10"> </tspan><tspan x="87.9" y="16.8" class="st2 st3">the</tspan><tspan x="105.3" y="16.8" class="st2 st3 st10"> </tspan><tspan x="115.2" y="16.8" class="st2 st3">main</tspan><tspan x="141.3" y="16.8" class="st2 st3 st10"> </tspan><tspan x="151.1" y="16.8" class="st2 st3">character </tspan><tspan x="0" y="33.6" class="st2 st3">became</tspan><tspan x="42.6" y="33.6" class="st2 st3 st10"> </tspan><tspan x="52.3" y="33.6" class="st2 st3">popular;</tspan><tspan x="96.5" y="33.6" class="st2 st3 st10"> </tspan><tspan x="106.1" y="33.6" class="st2 st3">usually</tspan><tspan x="142.2" y="33.6" class="st2 st3 st10"> </tspan><tspan x="151.9" y="33.6" class="st2 st3">with</tspan><tspan x="174" y="33.6" class="st2 st3 st10"> </tspan><tspan x="183.6" y="33.6" class="st2 st3">the </tspan><tspan x="0" y="50.4" class="st2 st3">phrases,</tspan><tspan x="43.5" y="50.4" class="st2 st3 st9"> </tspan><tspan x="49.4" y="50.4" class="st2 st3">“The</tspan><tspan x="75.8" y="50.4" class="st2 st3 st9"> </tspan><tspan x="81.8" y="50.4" class="st2 st3">Adventures</tspan><tspan x="144" y="50.4" class="st2 st3 st9"> </tspan><tspan x="149.9" y="50.4" class="st2 st3">of”,</tspan><tspan x="168.7" y="50.4" class="st2 st3 st9"> </tspan><tspan x="174.6" y="50.4" class="st2 st3">“The </tspan><tspan x="22.8" y="67.2" class="st2 st3">History of”, or “The Story of”</tspan></text>
<rect x="1316.1" y="131.5" class="st1" width="156" height="78"/>
<text transform="matrix(1 0 0 1 1316.1014 141.7617)"><tspan x="0" y="0" class="st2 st3">c.</tspan><tspan x="9.1" y="0" class="st2 st3 st5"> </tspan><tspan x="13.4" y="0" class="st2 st3">20th</tspan><tspan x="37.9" y="0" class="st2 st3 st5"> </tspan><tspan x="42.2" y="0" class="st2 st3">century:</tspan><tspan x="85.5" y="0" class="st2 st3 st5"> </tspan><tspan x="89.8" y="0" class="st2 st3">book</tspan><tspan x="117" y="0" class="st2 st3 st5"> </tspan><tspan x="121.3" y="0" class="st2 st3">names </tspan><tspan x="0" y="16.8" class="st2 st3">reflected</tspan><tspan x="47.8" y="16.8" class="st2 st3 st8"> </tspan><tspan x="54.2" y="16.8" class="st2 st3">the</tspan><tspan x="71.5" y="16.8" class="st2 st3 st8"> </tspan><tspan x="77.9" y="16.8" class="st2 st3">modern</tspan><tspan x="119.9" y="16.8" class="st2 st3 st8"> </tspan><tspan x="126.2" y="16.8" class="st2 st3">fon</tspan><tspan x="151.3" y="16.8" class="st2 st3">-</tspan><tspan x="0" y="33.6" class="st2 st3">ness</tspan><tspan x="23" y="33.6" class="st2 st3 st11"> </tspan><tspan x="33.8" y="33.6" class="st2 st3">for</tspan><tspan x="49.2" y="33.6" class="st2 st3 st11"> </tspan><tspan x="60.1" y="33.6" class="st2 st3">the</tspan><tspan x="77.5" y="33.6" class="st2 st3 st11"> </tspan><tspan x="88.3" y="33.6" class="st2 st3">cryptic,</tspan><tspan x="127.7" y="33.6" class="st2 st3 st11"> </tspan><tspan x="138.6" y="33.6" class="st2 st3">the </tspan><tspan x="1.2" y="50.4" class="st2 st3">unusual, and the provocative</tspan></text>
<rect x="1189.6" y="314.5" class="st1" width="151" height="95"/>
<text transform="matrix(1 0 0 1 1189.6014 324.7617)"><tspan x="0" y="0" class="st2 st3">Throughout</tspan><tspan x="65.2" y="0" class="st2 st3 st12"> </tspan><tspan x="74.2" y="0" class="st2 st3">the</tspan><tspan x="91.6" y="0" class="st2 st3 st12"> </tspan><tspan x="100.5" y="0" class="st2 st3">years</tspan><tspan x="128.2" y="0" class="st2 st3 st12"> </tspan><tspan x="137.2" y="0" class="st2 st3">no </tspan><tspan x="0" y="16.8" class="st2 st3">English</tspan><tspan x="39.2" y="16.8" class="st2 st3"> </tspan><tspan x="42.9" y="16.8" class="st2 st3">writer</tspan><tspan x="72.9" y="16.8" class="st2 st3"> </tspan><tspan x="76.6" y="16.8" class="st2 st3">has</tspan><tspan x="94.4" y="16.8" class="st2 st3"> </tspan><tspan x="98.1" y="16.8" class="st2 st3">been</tspan><tspan x="124.8" y="16.8" class="st2 st3"> </tspan><tspan x="128.5" y="16.8" class="st2 st3">able </tspan><tspan x="0" y="33.6" class="st2 st3">to</tspan><tspan x="11.2" y="33.6" class="st2 st3 st12"> </tspan><tspan x="19.4" y="33.6" class="st2 st3">refrain</tspan><tspan x="53.9" y="33.6" class="st2 st3 st12"> </tspan><tspan x="62.1" y="33.6" class="st2 st3">from</tspan><tspan x="88" y="33.6" class="st2 st3 st12"> </tspan><tspan x="96.2" y="33.6" class="st2 st3">alliterative </tspan><tspan x="0" y="50.4" class="st2 st3">titles</tspan><tspan x="25.2" y="50.4" class="st2 st3 st8"> </tspan><tspan x="31.4" y="50.4" class="st2 st3">(ex.</tspan><tspan x="51.6" y="50.4" class="st2 st3 st8"> </tspan><tspan x="57.8" y="50.4" class="st2 st3">Pride</tspan><tspan x="86.1" y="50.4" class="st2 st3 st8"> </tspan><tspan x="92.3" y="50.4" class="st2 st3">and</tspan><tspan x="112.2" y="50.4" class="st2 st3 st8"> </tspan><tspan x="118.4" y="50.4" class="st2 st3">Preju</tspan><tspan x="146.2" y="50.4" class="st2 st3">-</tspan><tspan x="61.9" y="67.2" class="st2 st3">dice)</tspan></text>
<rect x="1388.1" y="314.5" class="st1" width="163" height="112"/>
<text transform="matrix(1 0 0 1 1388.1014 324.7617)"><tspan x="0" y="0" class="st2 st3">1911:</tspan><tspan x="24" y="0" class="st2 st3 st12"> </tspan><tspan x="32.6" y="0" class="st2 st3">Volney</tspan><tspan x="71.1" y="0" class="st2 st3 st12"> </tspan><tspan x="79.7" y="0" class="st2 st3">Streamer</tspan><tspan x="128.7" y="0" class="st2 st3 st12"> </tspan><tspan x="137.3" y="0" class="st2 st3">pub</tspan><tspan x="158.2" y="0" class="st2 st3">-</tspan><tspan x="0" y="16.8" class="st2 st3">lished</tspan><tspan x="30.9" y="16.8" class="st2 st3"> </tspan><tspan x="33.7" y="16.8" class="st2 st3">a</tspan><tspan x="39.8" y="16.8" class="st2 st3"> </tspan><tspan x="42.7" y="16.8" class="st2 st3">list</tspan><tspan x="57.3" y="16.8" class="st2 st3"> </tspan><tspan x="60.1" y="16.8" class="st2 st3">of</tspan><tspan x="71.3" y="16.8" class="st2 st3"> </tspan><tspan x="74.2" y="16.8" class="st2 st3">book</tspan><tspan x="101.4" y="16.8" class="st2 st3"> </tspan><tspan x="104.2" y="16.8" class="st2 st3">titles</tspan><tspan x="129.4" y="16.8" class="st2 st3"> </tspan><tspan x="132.3" y="16.8" class="st2 st3">which </tspan><tspan x="0" y="33.6" class="st2 st3">are</tspan><tspan x="16.7" y="33.6" class="st2 st3 st12"> </tspan><tspan x="25.6" y="33.6" class="st2 st3">quotations</tspan><tspan x="82.4" y="33.6" class="st2 st3 st12"> </tspan><tspan x="91.2" y="33.6" class="st2 st3">from</tspan><tspan x="117.1" y="33.6" class="st2 st3 st12"> </tspan><tspan x="126" y="33.6" class="st2 st3">Shake</tspan><tspan x="158.2" y="33.6" class="st2 st3">-</tspan><tspan x="0" y="50.4" class="st2 st3">speare</tspan><tspan x="35.2" y="50.4" class="st2 st3"> </tspan><tspan x="39.2" y="50.4" class="st2 st3">plays.</tspan><tspan x="69.3" y="50.4" class="st2 st3"> </tspan><tspan x="73.3" y="50.4" class="st2 st3">There</tspan><tspan x="105.8" y="50.4" class="st2 st3"> </tspan><tspan x="109.8" y="50.4" class="st2 st3">were</tspan><tspan x="135.2" y="50.4" class="st2 st3"> </tspan><tspan x="139.2" y="50.4" class="st2 st3">over </tspan><tspan x="69.1" y="67.2" class="st2 st3">400.</tspan></text>
</svg>
