<svg xmlns="http://www.w3.org/2000/svg" viewBox="0 0 70.55 211.35"><path d="M51.3,191.8c-0.6-5.9,4.6-26.6,4.6-31.2V147.8H66a0.65,0.65,0,0,0,.6-0.6V147l-3.3-25.7a0.48,0.48,0,0,1,.2-0.6c1-.9,2.7-4.4,5.5-8.9,3.2-5.2-2-47.8-8-53.9-4.1-4.3-40.8-4-44.6,0-6,6.1-11.2,48.7-8,53.9,2.8,4.4,4.4,7.9,5.5,8.9a0.73,0.73,0,0,1,.2.6L10.5,147a0.53,0.53,0,0,0,.4.7H21.3v12.8c0,4.5,5.2,25.4,4.6,31.2s-18.5,13-17.6,15.6,59.6,2.6,60.6,0S51.9,197.7,51.3,191.8Z" transform="translate(-3.42 -1.9)" style="fill:none;stroke:#010101;stroke-miterlimit:10;stroke-width:8px"/><path d="M51.9,196.6c-6,0-8.3,2.3-13.4,2.3s-7-2.4-13.3-2.4c-5.9,0-18,8.3-17.1,10.9s59.6,2.6,60.6,0S57.8,196.6,51.9,196.6Z" transform="translate(-3.42 -1.9)" style="fill:#010101"/><path d="M40.1,53.9c4.3-1.6,16.4-7.5,16.4-25.2a30,30,0,0,0-1.4-9.9c-6.6-3.8-12.9,2.6-21.8,2.3-6-.2-9.4-6.7-9.4-6.7s3.4,6.5,9.4,6.7c8.9,0.3,15.1-6.1,21.8-2.3C52.2,5.9,40.7,5.9,38.5,5.9c-2.7,0-17.9,1.3-17.9,22.8,0,17.1,10.8,23.3,15.1,25.2h4.4Z" transform="translate(-3.42 -1.9)" style="fill:none;stroke:#010101;stroke-linejoin:round;stroke-width:8px"/><line x1="7.68" y1="145.3" x2="63.18" y2="145.3" style="fill:none;stroke:#010101;stroke-miterlimit:10;stroke-width:8px"/><path d="M37.5,5.9a17.45,17.45,0,0,0-14.6,8.4c0,0.1,3.4,6.5,9.4,6.7,8.9,0.3,15.1-6.1,21.8-2.3C51.2,5.9,39.7,5.9,37.5,5.9Z" transform="translate(-3.42 -1.9)" style="fill:#010101"/></svg>